<svg height="1em" style="flex:none;line-height:1" viewBox="0 0 24 24" width="1em" xmlns="http://www.w3.org/2000/svg"><title>Snowflake</title><path clip-rule="evenodd" d="M23.252 10.365l-2.843 1.636 2.843 1.631a1.47 1.47 0 01.697.903 1.492 1.492 0 01-.15 1.135c-.202.342-.53.591-.912.693a1.498 1.498 0 01-1.132-.15l-5.09-2.924a1.473 1.473 0 01-.68-.851 1.446 1.446 0 01-.068-.485 1.5 1.5 0 01.745-1.248l5.09-2.921a1.496 1.496 0 012.044.547 1.479 1.479 0 01-.544 2.034zm-2.692 7.927l-5.087-2.92a1.477 1.477 0 00-.867-.195 1.478 1.478 0 00-.982.468c-.257.276-.4.639-.403 1.017v5.847A1.49 1.49 0 0014.718 24c.828 0 1.497-.668 1.497-1.491v-3.27l2.849 1.636a1.493 1.493 0 002.044-.544 1.49 1.49 0 00-.548-2.04zm-5.87-5.719l-2.116 2.102a.42.42 0 01-.265.112h-.621a.427.427 0 01-.265-.112l-2.115-2.102a.42.42 0 01-.11-.262v-.62a.43.43 0 01.11-.265l2.114-2.102a.426.426 0 01.264-.11h.623a.422.422 0 01.265.11l2.116 2.102a.43.43 0 01.109.265v.62a.428.428 0 01-.11.262zM13 11.99a.442.442 0 00-.113-.266l-.612-.607a.431.431 0 00-.266-.11h-.024a.426.426 0 00-.264.11l-.612.607a.436.436 0 00-.107.266v.024c0 .085.047.202.107.262l.612.61c.061.06.179.11.264.11h.024a.434.434 0 00.266-.11l.612-.61a.429.429 0 00.112-.262v-.024zM3.436 5.704l5.089 2.924c.274.157.578.219.868.195.375-.026.726-.194.983-.47.256-.275.4-.64.403-1.017V1.489C10.78.667 10.11 0 9.284 0c-.829 0-1.498.667-1.498 1.49v3.27l-2.85-1.639a1.496 1.496 0 00-2.045.546 1.489 1.489 0 00.546 2.037zm11.17 3.119c.29.024.594-.038.866-.195l5.087-2.923a1.474 1.474 0 00.697-.903 1.496 1.496 0 00-.149-1.135 1.496 1.496 0 00-2.044-.545L16.215 4.76V1.489C16.215.667 15.546 0 14.718 0c-.83 0-1.497.667-1.497 1.49v5.845a1.491 1.491 0 001.385 1.487zm-5.213 6.354a1.479 1.479 0 00-.868.194l-5.089 2.92a1.476 1.476 0 00-.696.905 1.498 1.498 0 00.148 1.135 1.496 1.496 0 002.044.543l2.851-1.636v3.27c0 .825.67 1.491 1.498 1.491.826 0 1.496-.667 1.496-1.49v-5.847a1.5 1.5 0 00-.401-1.017 1.477 1.477 0 00-.982-.468zm-1.38-2.74c.05-.156.072-.32.068-.484a1.497 1.497 0 00-.751-1.248l-5.084-2.92a1.499 1.499 0 00-2.045.547 1.481 1.481 0 00.549 2.034l2.841 1.636L.75 13.633a1.47 1.47 0 00-.698.903 1.492 1.492 0 00.15 1.135c.202.343.53.592.912.693.382.102.789.048 1.132-.15l5.086-2.924c.345-.195.577-.505.684-.852z" fill="#249EDC" fill-rule="evenodd"></path></svg>