<svg version="1.2" xmlns="http://www.w3.org/2000/svg" viewBox="0 0 410 90" width="410" height="90">
	<title>logo</title>
	<style>
		.s0 { fill: #000000 } 
		.s1 { fill: #1abc9c } 
	</style>
	<path id="minusx" class="s0" aria-label="minusx"  d="m86.3 87h18.2v-34.8c0-16-9.5-25.4-24.2-25.4-8.7 0-16.2 4.8-20.1 11.1-4.1-7.2-11.3-11.1-20.3-11.1-7.8 0-13.9 3.3-17.4 8.1v-7.5h-18.3v59.6h18.3v-32.4c0-7.8 4.5-12 11.4-12 6.9 0 11.4 4.2 11.4 12v32.4h18.2v-32.4c0-7.8 4.5-12 11.4-12 7 0 11.4 4.2 11.4 12zm31 0h18.3v-59.6h-18.3zm9.2-65.7c6.4 0 10.8-4.4 10.8-9.9 0-5.5-4.4-9.9-10.8-9.9-6.5 0-10.9 4.4-10.9 9.9 0 5.5 4.4 9.9 10.9 9.9zm63.4 65.7h18.2v-34.8c0-16-9.2-25.4-23-25.4-8 0-14.4 3.5-18 8.6v-7.9h-18.3v59.5h18.3v-32.3c0-8.1 4.5-12.6 11.4-12.6 6.9 0 11.4 4.5 11.4 12.6zm89.7-59.6h-18.2v32.4c0 8.1-4.5 12.6-11.6 12.6-6.8 0-11.4-4.5-11.4-12.6v-32.4h-18.1v34.8c0 15.9 9.3 25.4 23 25.4 8 0 14.4-3.6 18.1-8.7v8.1h18.2zm61.6 42.3c-0.4-22.2-32.6-15.5-32.6-25 0-2.9 2.3-4.6 6.6-4.6 5.1 0 8.2 2.7 8.8 6.7h16.8c-1.1-11.7-9.7-20.3-25.1-20.3-15.6 0-24.2 8.4-24.2 18.5 0 21.9 32.5 15 32.5 24.6 0 2.6-2.5 4.8-7.2 4.8-5 0-8.8-2.8-9.2-7h-18c0.8 11.6 11.5 20.4 27.4 20.4 15 0 24.2-7.8 24.2-18.1zm46.4 17.3h20.5l-20.5-29.6 20-30h-19.8l-9.6 16.4-11.4-16.4h-20.5l20.2 29.1-19.7 30.5h19.8l9.6-16.6z"/>
	<path id="Layer 2" class="s1" d="m395.2 51.1l-4.1 5.9 4 5.8 11.9-5.8z"/>
	<path id="Layer 3" class="s1" d="m347 34.8l15.7 22.2-15.7 22.9v-15.5l6.2-7.4-6.2-7.4z"/>
</svg>